<?xml version="1.0" encoding="UTF-8" standalone="no"?>
<!-- Created with Inkscape (http://www.inkscape.org/) -->

<svg
   xmlns:dc="http://purl.org/dc/elements/1.1/"
   xmlns:cc="http://creativecommons.org/ns#"
   xmlns:rdf="http://www.w3.org/1999/02/22-rdf-syntax-ns#"
   xmlns:svg="http://www.w3.org/2000/svg"
   xmlns="http://www.w3.org/2000/svg"
   xmlns:sodipodi="http://sodipodi.sourceforge.net/DTD/sodipodi-0.dtd"
   xmlns:inkscape="http://www.inkscape.org/namespaces/inkscape"
   width="210mm"
   height="210mm"
   viewBox="0 0 210 210"
   version="1.1"
   id="svg5792"
   inkscape:version="0.92.4 (5da689c313, 2019-01-14)"
   sodipodi:docname="square.svg">
  <defs
     id="defs5786" />
  <sodipodi:namedview
     id="base"
     pagecolor="#ffffff"
     bordercolor="#666666"
     borderopacity="1.0"
     inkscape:pageopacity="0.0"
     inkscape:pageshadow="2"
     inkscape:zoom="0.7"
     inkscape:cx="211.40566"
     inkscape:cy="50.882559"
     inkscape:document-units="mm"
     inkscape:current-layer="g6392"
     showgrid="false"
     inkscape:window-width="3360"
     inkscape:window-height="1995"
     inkscape:window-x="-13"
     inkscape:window-y="-13"
     inkscape:window-maximized="1" />
  <metadata
     id="metadata5789">
    <rdf:RDF>
      <cc:Work
         rdf:about="">
        <dc:format>image/svg+xml</dc:format>
        <dc:type
           rdf:resource="http://purl.org/dc/dcmitype/StillImage" />
        <dc:title></dc:title>
      </cc:Work>
    </rdf:RDF>
  </metadata>
  <g
     inkscape:label="Layer 1"
     inkscape:groupmode="layer"
     id="layer1"
     transform="translate(0,-87)">
    <g
       id="g6348"
       transform="translate(-174.63788,-82.492744)">
      <g
         id="g6392"
         transform="matrix(4.0891941,0,0,4.0891941,-2117.2849,-1142.5525)">
        <path
           style="fill:#d4d4d4;stroke-width:0.16933334"
           d="m 575.71682,368.97679 c -2.06661,-2.02407 -2.97367,-1.8605 10.60142,-1.91177 9.86567,-0.0373 11.54594,-0.008 11.71965,0.20084 0.29141,0.35113 0.0426,0.72828 -1.28047,1.9406 l -1.12922,1.03473 h -9.3102 -9.3102 z m -9.84231,-2.63027 c -0.33475,-0.33475 -0.33867,-0.56444 -0.33867,-19.86715 v -19.52848 l 0.39192,-0.36819 0.39191,-0.36818 h 20.0679 20.06791 l 0.36818,0.39191 0.36818,0.39192 v 19.50475 c 0,19.27898 -0.004,19.50867 -0.33866,19.84342 -0.33487,0.33487 -0.56445,0.33867 -20.48934,0.33867 -19.92489,0 -20.15446,-0.004 -20.48933,-0.33867 z m 39.28533,-19.812 v -18.288 h -18.796 -18.796 v 18.288 18.288 h 18.796 18.796 z m -32.385,13.36377 c -0.37702,-0.2196 -0.39591,-1.09733 -0.0267,-1.23902 0.1799,-0.069 0.29921,0.01 0.35842,0.23588 0.0488,0.18665 0.22776,0.33937 0.39767,0.33937 0.45779,0 0.59508,0.35707 0.23775,0.61835 -0.36853,0.26948 -0.56653,0.27877 -0.96718,0.0454 z m 26.50067,0.0708 c -0.30137,-0.1216 -0.26395,-0.33885 0.15624,-0.90718 0.28256,-0.38218 0.42004,-0.45434 0.59266,-0.31108 0.333,0.27637 0.2727,0.95417 -0.10277,1.15512 -0.18014,0.0964 -0.35159,0.16927 -0.381,0.16192 -0.0294,-0.007 -0.14871,-0.0518 -0.26513,-0.0988 z m -26.60598,-25.61312 c -0.12693,-0.0784 -0.19348,-0.37089 -0.16125,-0.70849 0.0522,-0.54646 0.0877,-0.57491 0.71812,-0.57491 0.78164,0 0.99831,0.34724 0.36654,0.58743 -0.2404,0.0914 -0.4371,0.27788 -0.4371,0.41439 0,0.32429 -0.2154,0.44901 -0.48631,0.28158 z m 26.75046,-0.44513 c -0.38451,-0.6517 -0.3469,-0.92294 0.12798,-0.92294 0.63816,0 0.9616,0.92776 0.46665,1.33854 -0.1873,0.15544 -0.30711,0.0717 -0.59463,-0.4156 z m -36.21672,22.90675 -1.22343,-1.23165 v -9.15457 -9.15457 l 1.18158,-1.14072 c 0.87263,-0.84245 1.28218,-1.12644 1.56633,-1.08611 l 0.38476,0.0546 0.0435,11.24185 c 0.0438,11.31252 0.026,11.70282 -0.53419,11.70282 -0.10734,0 -0.74571,-0.55425 -1.4186,-1.23165 z m 44.51609,1.00116 c -0.1389,-0.16736 -0.17936,-3.30909 -0.14773,-11.47233 l 0.0435,-11.24185 0.36725,-0.0523 c 0.26031,-0.0371 0.71641,0.27708 1.56633,1.07885 l 1.19908,1.13115 v 9.17006 9.17006 l -1.23165,1.22343 c -1.27814,1.26961 -1.47632,1.37913 -1.79683,0.99294 z m -33.00565,-32.1461 c -0.35088,-0.35088 -0.23456,-0.55763 0.96567,-1.71635 l 1.16887,-1.12845 h 9.42646 9.42646 l 1.16591,1.04387 c 1.27084,1.13781 1.45549,1.4191 1.16295,1.7716 -0.26594,0.32043 -22.99662,0.34904 -23.31632,0.0293 z"
           id="path6406"
           inkscape:connector-curvature="0" />
        <path
           style="fill:#b9b9b9;stroke-width:0.16933334"
           d="m 575.76585,369.02901 c -0.73078,-0.70173 -1.08601,-1.17291 -1.08601,-1.4405 v -0.39766 l 11.63936,0.0435 c 13.44295,0.0502 12.52488,-0.0997 10.59781,1.73108 l -1.15517,1.09747 -9.45499,0.004 -9.45499,0.004 z m -9.85747,-2.71636 c -0.29503,-0.29502 -0.29503,-39.43057 0,-39.7256 0.15578,-0.15578 4.93568,-0.2032 20.48337,-0.2032 19.87711,0 20.28366,0.007 20.45547,0.32754 0.26918,0.50297 0.24182,39.33154 -0.0279,39.60126 -0.29507,0.29507 -40.61586,0.29507 -40.91093,0 z m 39.33613,-19.8628 v -18.288 h -18.88067 -18.88066 l -0.0436,18.11867 c -0.024,9.96527 -0.007,18.21425 0.0373,18.33107 0.0643,0.16891 3.93891,0.20358 18.92428,0.16933 l 18.84337,-0.0431 z m -32.476,13.35689 c -0.16166,-0.16165 -0.15491,-1.08022 0.008,-1.08022 0.0707,0 0.22378,0.1524 0.34011,0.33867 0.11632,0.18626 0.3315,0.33866 0.47817,0.33866 0.14667,0 0.2354,0.0953 0.19718,0.21167 -0.0777,0.23672 -0.83617,0.37844 -1.02339,0.19122 z m 26.42445,0.008 c -0.12923,-0.12923 0.54067,-1.08867 0.76012,-1.08867 0.0815,0 0.12434,0.24765 0.0952,0.55033 -0.0389,0.40309 -0.14554,0.56357 -0.3987,0.59981 -0.1901,0.0272 -0.39556,-5.1e-4 -0.45658,-0.0615 z m -26.54512,-26.06211 c 0,-0.48386 0.0741,-0.60804 0.41371,-0.69328 0.43673,-0.10961 0.77163,0.0105 0.77163,0.27671 0,0.0876 -0.11594,0.15934 -0.25763,0.15934 -0.1417,0 -0.34443,0.1905 -0.45052,0.42334 -0.27199,0.59696 -0.47719,0.52553 -0.47719,-0.16611 z m 26.924,0.16611 c -0.0885,-0.23284 -0.23903,-0.42334 -0.33447,-0.42334 -0.26489,0 -0.20659,-0.28974 0.0805,-0.3999 0.47112,-0.18078 0.762,0.0757 0.762,0.67202 0,0.67374 -0.27788,0.75646 -0.508,0.15122 z m -36.33665,22.91782 -1.08601,-1.04284 0.003,-9.24416 c 10e-4,-5.08429 0.0587,-9.32036 0.12716,-9.41349 0.0685,-0.0931 0.59493,-0.60733 1.16981,-1.14265 0.69153,-0.64396 1.13556,-0.93865 1.31217,-0.87088 0.23934,0.0918 0.26693,1.27322 0.26693,11.42965 v 11.32721 h -0.35332 c -0.2024,0 -0.81722,-0.44545 -1.43933,-1.04284 z m 44.46465,-10.28437 c 0,-10.20586 0.0267,-11.33747 0.26972,-11.43072 0.18329,-0.0703 0.64456,0.25837 1.43934,1.02566 l 1.16961,1.12917 v 9.25871 9.25871 l -1.08601,1.04284 c -0.62211,0.59739 -1.23693,1.04284 -1.43933,1.04284 h -0.35333 z m -33.02,-21.26153 c 0,-0.3044 0.31789,-0.689 1.18968,-1.43933 l 1.18969,-1.02393 h 9.32545 9.32545 l 1.16886,1.12845 c 1.98179,1.91326 2.96131,1.75022 -10.51513,1.75022 h -11.684 z"
           id="path6404"
           inkscape:connector-curvature="0" />
        <path
           style="fill:#959595;stroke-width:0.16933334"
           d="m 575.81808,368.9098 c -0.84151,-0.82014 -1.16103,-1.24364 -1.08593,-1.43933 0.0971,-0.25306 1.11313,-0.27728 11.63169,-0.27728 10.60309,0 11.53397,0.0226 11.63365,0.28236 0.078,0.20318 -0.2319,0.60684 -1.10491,1.43934 l -1.21328,1.15696 h -9.33444 -9.33444 z m -9.9097,-2.59715 c -0.15571,-0.1557 -0.2032,-4.7838 -0.2032,-19.7999 0,-17.58941 0.0272,-19.62396 0.26609,-19.8628 0.23892,-0.23892 2.32155,-0.2661 20.39257,-0.2661 18.07102,0 20.15366,0.0272 20.39258,0.2661 0.23881,0.23882 0.26609,2.26209 0.26609,19.73846 0,13.09898 -0.0574,19.57958 -0.17529,19.79991 -0.17181,0.32102 -0.57836,0.32753 -20.45547,0.32753 -15.54769,0 -20.32759,-0.0474 -20.48337,-0.2032 z m 39.4208,-19.8628 v -18.37266 h -18.96534 -18.96533 v 18.37266 18.37267 h 18.96533 18.96534 z m -32.46967,13.35299 c -0.24332,-0.10178 -0.29198,-1.07632 -0.0537,-1.07632 0.0869,0 0.20629,0.1524 0.26541,0.33867 0.0607,0.19112 0.2562,0.33866 0.44885,0.33866 0.19738,0 0.31197,0.0893 0.27166,0.21167 -0.0751,0.22802 -0.58834,0.33115 -0.93218,0.18732 z m 26.44663,-0.0793 c -0.064,-0.10355 -0.0439,-0.2369 0.0447,-0.29634 0.0886,-0.0594 0.21024,-0.24141 0.27037,-0.4044 0.17224,-0.4668 0.45863,-0.34594 0.45863,0.19355 0,0.2905 -0.10901,0.53172 -0.26785,0.59267 -0.35457,0.13606 -0.3706,0.13335 -0.50585,-0.0855 z m -26.6583,-25.97374 c 0,-0.56444 0.0282,-0.59266 0.59267,-0.59266 0.64881,0 0.80005,0.24493 0.24143,0.39101 -0.19317,0.0505 -0.39256,0.24991 -0.44308,0.44309 -0.14608,0.55861 -0.39102,0.40737 -0.39102,-0.24144 z m 26.91428,0.127 c -0.12837,-0.25611 -0.26125,-0.52281 -0.29529,-0.59266 -0.034,-0.0699 0.13497,-0.127 0.37557,-0.127 0.38705,0 0.43744,0.0683 0.43744,0.59266 0,0.71193 -0.19994,0.76097 -0.51772,0.127 z m -36.2702,22.86007 -1.14274,-1.15157 v -9.14464 -9.14464 l 1.06289,-1.05344 c 0.66497,-0.65907 1.20426,-1.05344 1.44053,-1.05344 h 0.37764 l -0.0435,11.30069 c -0.0381,9.89242 -0.0752,11.30679 -0.29779,11.34965 -0.13985,0.0269 -0.7685,-0.46925 -1.397,-1.10261 z m 44.52081,1.03004 c -0.0621,-0.0621 -0.11289,-5.16748 -0.11289,-11.34533 v -11.23244 h 0.35333 c 0.2024,0 0.81722,0.44545 1.43933,1.04284 l 1.08601,1.04284 v 9.16403 9.16404 l -1.14725,1.13845 c -1.10583,1.09736 -1.37572,1.26838 -1.61853,1.02557 z m -33.13289,-32.37133 c 0,-0.17098 0.52599,-0.81868 1.16887,-1.43933 l 1.16887,-1.12845 h 9.23313 9.23313 l 1.1844,1.02949 c 1.1804,1.02603 1.46615,1.40283 1.28549,1.69513 -0.0557,0.0901 -4.90737,0.15405 -11.68455,0.15405 -11.13123,0 -11.58934,-0.0123 -11.58934,-0.31089 z"
           id="path6402"
           inkscape:connector-curvature="0" />
        <path
           style="fill:#484848;stroke-width:0.16933334"
           d="m 575.81808,368.9098 c -0.84446,-0.82302 -1.16116,-1.2433 -1.08548,-1.44051 0.0979,-0.25521 1.07078,-0.27483 11.65462,-0.23495 9.51225,0.0358 11.56118,0.0838 11.62391,0.272 0.0425,0.12761 -0.4746,0.74333 -1.17123,1.39455 l -1.24739,1.16605 -9.29105,0.002 -9.29104,0.002 z m -9.84681,-2.66004 c -0.23883,-0.23883 -0.26609,-2.26639 -0.26609,-19.78576 0,-18.69527 0.0131,-19.53149 0.30966,-19.7999 0.28449,-0.25746 1.94302,-0.28025 20.39507,-0.28025 h 20.0854 l 0.2636,0.37635 c 0.23486,0.3353 0.2636,2.49278 0.2636,19.78575 0,18.58847 -0.0131,19.42127 -0.30967,19.68966 -0.28448,0.25745 -1.94284,0.28024 -20.39257,0.28024 -18.03141,0 -20.11008,-0.0272 -20.349,-0.26609 z m 39.31633,-19.75757 0.0431,-18.415 h -18.96608 -18.96609 v 18.34444 c 0,10.08945 0.0511,18.39557 0.11362,18.45807 0.0625,0.0625 8.57784,0.0942 18.923,0.0705 l 18.80938,-0.0431 z m -32.34342,13.28901 c -0.18337,-0.0393 -0.29634,-0.22017 -0.29634,-0.47443 0,-0.45552 0.24798,-0.55282 0.39991,-0.15692 0.0536,0.1397 0.25226,0.254 0.44145,0.254 0.18919,0 0.34398,0.0673 0.34398,0.14959 0,0.186 -0.49372,0.31249 -0.889,0.22776 z m 26.289,-0.12141 c 0,-0.14584 0.57848,-0.76394 0.71496,-0.76394 0.0724,0 0.1317,0.1905 0.1317,0.42334 0,0.33866 -0.0847,0.42333 -0.42333,0.42333 -0.23283,0 -0.42333,-0.0372 -0.42333,-0.0827 z m -26.55425,-25.95227 c 0.0447,-0.38802 0.14534,-0.47451 0.60391,-0.51873 0.30913,-0.0298 0.55034,0.0259 0.55034,0.127 0,0.099 -0.15954,0.18006 -0.35452,0.18006 -0.21211,0 -0.3901,0.13605 -0.44309,0.33867 -0.13306,0.50882 -0.41812,0.40731 -0.35664,-0.127 z m 26.97758,0.127 c -0.0591,-0.18627 -0.17855,-0.33867 -0.26541,-0.33867 -0.0869,0 -0.15792,-0.0815 -0.15792,-0.18111 0,-0.0996 0.17145,-0.15676 0.381,-0.127 0.27279,0.0387 0.39621,0.18636 0.43458,0.51978 0.0617,0.53634 -0.23213,0.63148 -0.39225,0.127 z m -36.36459,22.9024 -1.14274,-1.15157 v -9.13353 -9.13353 l 1.143,-1.06628 c 0.62865,-0.58645 1.2573,-1.0454 1.397,-1.01989 0.22276,0.0407 0.254,1.43054 0.254,11.3024 0,9.87586 -0.0312,11.26203 -0.25426,11.30499 -0.13985,0.0269 -0.7685,-0.46923 -1.397,-1.10259 z m 44.48574,0.93127 c -0.0445,-0.11642 -0.0611,-5.20173 -0.037,-11.3007 0.0384,-9.702 0.0756,-11.09441 0.29787,-11.13204 0.1397,-0.0237 0.76835,0.4419 1.397,1.03458 l 1.143,1.0776 v 9.13766 9.13767 l -1.16887,1.12845 c -1.17533,1.13469 -1.48272,1.30736 -1.63198,0.91678 z m -33.04763,-32.24446 c -0.0779,-0.20308 0.2104,-0.58494 1.02286,-1.35467 l 1.13138,-1.07187 h 9.44333 9.44333 l 1.15912,1.16807 c 0.65133,0.65636 1.1086,1.24981 1.0438,1.35466 -0.0822,0.13295 -3.42478,0.1866 -11.62531,0.1866 -10.59574,0 -11.51861,-0.0225 -11.61851,-0.28279 z"
           id="path6400"
           inkscape:connector-curvature="0" />
        <path
           style="fill:#2c2c2c;stroke-width:0.16933334"
           d="m 575.93347,368.85952 c -0.97783,-0.94814 -1.20923,-1.26179 -1.06189,-1.43933 0.15407,-0.18564 2.25271,-0.227 11.51831,-0.227 10.4207,0 11.33861,0.0227 11.43827,0.28236 0.078,0.20318 -0.2319,0.60684 -1.10492,1.43934 l -1.21327,1.15696 h -9.16311 -9.16311 z m -9.88963,-2.68233 c -0.33472,-0.33473 -0.33866,-0.56445 -0.33866,-19.72734 0,-19.16289 0.004,-19.39261 0.33866,-19.72733 0.33484,-0.33483 0.56445,-0.33867 20.28764,-0.33867 16.96085,0 19.9982,0.036 20.27767,0.24033 0.32162,0.23516 0.32965,0.65953 0.37313,19.72523 0.0441,19.32916 0.0417,19.48762 -0.29633,19.82567 -0.33762,0.33762 -0.52538,0.34077 -20.32211,0.34077 -19.75555,0 -19.98516,-0.004 -20.32,-0.33866 z m 39.24375,-19.685 -0.0431,-18.49967 h -18.88067 -18.88066 l -0.0431,18.49967 -0.0431,18.49966 h 18.96683 18.96684 z m -32.5754,13.00444 c -0.14717,-0.38352 0.11869,-0.70353 0.30617,-0.36852 0.0849,0.15166 0.26483,0.27574 0.3999,0.27574 0.13507,0 0.24558,0.0762 0.24558,0.16934 0,0.26592 -0.84635,0.19783 -0.95165,-0.0766 z m 26.80942,-0.16413 c 0.17109,-0.23059 0.36965,-0.34672 0.45372,-0.26538 0.24149,0.23366 -0.0241,0.6754 -0.40608,0.6754 -0.34317,0 -0.34435,-0.0101 -0.0476,-0.41002 z m -26.79026,-25.37098 c -0.0659,-0.16298 -0.0759,-0.41063 -0.0223,-0.55033 0.10748,-0.2801 0.95476,-0.35523 0.95476,-0.0847 0,0.0931 -0.11675,0.16933 -0.25945,0.16933 -0.1427,0 -0.32557,0.17145 -0.40638,0.381 -0.13053,0.33852 -0.16026,0.34796 -0.26666,0.0847 z m 26.94773,-0.0735 c -0.0591,-0.16913 -0.15186,-0.40277 -0.20612,-0.51919 -0.0558,-0.11964 0.0129,-0.21166 0.15803,-0.21166 0.14118,0 0.3075,0.16007 0.3696,0.35571 0.14249,0.44896 -0.1688,0.81219 -0.32151,0.37514 z m -36.3124,22.7542 -1.2175,-1.22568 v -8.98524 -8.98524 l 1.18396,-1.14301 c 0.65117,-0.62866 1.27982,-1.11107 1.397,-1.07202 0.32165,0.10719 0.39745,22.18588 0.0771,22.45177 -0.17213,0.14285 -0.50094,-0.0947 -1.44054,-1.04058 z m 44.52996,1.0167 c -0.29846,-0.35962 -0.19962,-22.32774 0.10091,-22.42789 0.11717,-0.039 0.74582,0.44336 1.397,1.07202 l 1.18396,1.14301 v 8.99346 8.99346 l -1.2413,1.23302 c -1.02792,1.02105 -1.27557,1.19174 -1.44057,0.99292 z m -33.0157,-32.15772 c -0.16084,-0.16085 0.0417,-0.45418 0.93526,-1.35467 l 1.14056,-1.14936 9.31788,0.005 9.31787,0.005 1.17269,1.06596 c 1.93951,1.76298 2.75554,1.63428 -10.36218,1.63428 -8.64048,0 -11.36533,-0.0486 -11.52208,-0.2053 z"
           id="path6398"
           inkscape:connector-curvature="0" />
        <path
           style="fill:#1a1a1a;stroke-width:0.16933334"
           d="m 575.93519,368.85968 c -0.59731,-0.57356 -1.08601,-1.14506 -1.08601,-1.27 0,-0.18777 1.99698,-0.22716 11.51466,-0.22716 9.80653,0 11.51467,0.0355 11.51467,0.23924 0,0.13157 -0.51435,0.70162 -1.143,1.26676 l -1.143,1.02752 -9.28566,0.003 -9.28565,0.003 z m -9.9579,-2.78101 c -0.0565,-0.14732 -0.10278,-9.00938 -0.10278,-19.69347 0,-14.88303 0.0475,-19.47313 0.2032,-19.62881 0.29506,-0.29506 40.27721,-0.29506 40.57227,0 0.295,0.295 0.295,39.09192 0,39.38693 -0.15577,0.15577 -4.91417,0.2032 -20.38655,0.2032 -18.24837,0 -20.19321,-0.0257 -20.28614,-0.26785 z m 39.43655,-19.62882 v -18.45733 h -19.05 -19.05 l -0.0436,18.288 c -0.024,10.0584 -0.007,18.38358 0.0373,18.5004 0.0643,0.16892 3.97277,0.20358 19.09361,0.16933 l 19.0127,-0.0431 z m -32.59666,12.92164 c 0,-0.32628 0.0255,-0.33884 0.21166,-0.10415 0.11642,0.14679 0.32597,0.30774 0.46567,0.35767 0.14037,0.0502 0.0457,0.0968 -0.21167,0.10414 -0.37038,0.0106 -0.46566,-0.0625 -0.46566,-0.35766 z m 26.58533,0.28838 c 0,-0.061 0.12252,-0.23339 0.27226,-0.38314 0.25013,-0.25012 0.26734,-0.24684 0.21167,0.0404 -0.0561,0.2892 -0.48393,0.59224 -0.48393,0.34274 z m 0.20863,-25.99468 c -0.1764,-0.28247 -0.16911,-0.33867 0.0439,-0.33867 0.14254,0 0.25543,0.14967 0.25543,0.33867 0,0.18626 -0.0198,0.33866 -0.0439,0.33866 -0.0242,0 -0.13911,-0.1524 -0.25544,-0.33866 z m -26.79396,-0.0682 c 0,-0.12883 0.1252,-0.28227 0.27823,-0.341 0.41056,-0.15754 0.43405,-0.0346 0.0554,0.28959 -0.25923,0.22197 -0.33359,0.23342 -0.33359,0.0514 z m -9.44523,23.05065 -1.05344,-1.06289 v -9.15425 -9.15426 l 1.03034,-0.95885 c 0.56668,-0.52737 1.13818,-0.95886 1.27,-0.95886 0.20424,0 0.23966,1.65179 0.23966,11.176 0,8.96255 -0.0429,11.176 -0.21656,11.176 -0.11911,0 -0.69061,-0.4783 -1.27,-1.06289 z m 44.49723,-10.11311 c 0,-7.84531 0.0542,-11.176 0.18171,-11.176 0.0999,0 0.67144,0.43263 1.27,0.9614 l 1.08829,0.96141 v 9.16115 9.16116 l -1.06289,1.05344 c -0.58459,0.57939 -1.15609,1.05344 -1.27,1.05344 -0.16117,0 -0.20711,-2.47921 -0.20711,-11.176 z m -33.02,-21.22449 c 0,-0.12494 0.4887,-0.69644 1.08601,-1.27 l 1.08601,-1.04284 h 9.25589 9.25589 l 1.0456,0.97366 c 1.11012,1.03375 1.2932,1.23687 1.29734,1.43934 0.001,0.0698 -5.17901,0.127 -11.51208,0.127 -9.51768,0 -11.51466,-0.0394 -11.51466,-0.22716 z"
           id="path6396"
           inkscape:connector-curvature="0" />
        <path
           style="fill:#000000;stroke-width:0.16933334"
           d="m 575.93519,368.85968 c -0.59731,-0.57356 -1.08601,-1.14506 -1.08601,-1.27 0,-0.18775 1.98149,-0.22716 11.42,-0.22716 7.45264,0 11.45647,0.059 11.52497,0.16982 0.0577,0.0934 -0.41403,0.66289 -1.04834,1.26553 l -1.1533,1.0957 -9.28566,0.004 -9.28565,0.004 z m -9.85748,-2.71636 c -0.15569,-0.15569 -0.2032,-4.76635 -0.2032,-19.72138 0,-19.12374 0.007,-19.52171 0.32753,-19.69346 0.22045,-0.11798 6.83245,-0.17529 20.22324,-0.17529 17.86123,0 19.92292,0.0272 20.1618,0.26609 0.23879,0.23879 0.2661,2.2467 0.2661,19.56913 0,12.98225 -0.0574,19.41029 -0.17529,19.63057 -0.1718,0.32101 -0.57644,0.32754 -20.28614,0.32754 -15.41599,0 -20.15828,-0.0474 -20.31404,-0.2032 z m 39.23149,-1.21206 c 0.13955,-0.16815 0.17925,-5.16206 0.14774,-18.58434 l -0.0431,-18.3544 h -19.05 -19.05 l -0.0431,18.3544 c -0.0315,13.42228 0.008,18.41619 0.14774,18.58434 0.28449,0.34279 37.60622,0.34279 37.89071,0 z m -32.49202,-5.5374 c 0,-0.0986 0.0762,-0.13223 0.16933,-0.0747 0.0931,0.0576 0.16933,0.13825 0.16933,0.17932 0,0.0411 -0.0762,0.0747 -0.16933,0.0747 -0.0931,0 -0.16933,-0.0807 -0.16933,-0.17933 z m 26.83933,0.01 c 0.0576,-0.0931 0.13826,-0.16933 0.17933,-0.16933 0.0411,0 0.0747,0.0762 0.0747,0.16933 0,0.0931 -0.0807,0.16934 -0.17933,0.16934 -0.0986,0 -0.13223,-0.0762 -0.0747,-0.16934 z m 0.0234,-25.82333 c -0.0536,-0.1397 -0.0237,-0.254 0.0666,-0.254 0.0902,0 0.16402,0.1143 0.16402,0.254 0,0.1397 -0.0299,0.254 -0.0666,0.254 -0.0366,0 -0.11041,-0.1143 -0.16402,-0.254 z m -26.86276,-0.0847 c 0,-0.0931 0.0807,-0.16933 0.17932,-0.16933 0.0986,0 0.13224,0.0762 0.0747,0.16933 -0.0576,0.0931 -0.13826,0.16934 -0.17933,0.16934 -0.0411,0 -0.0747,-0.0762 -0.0747,-0.16934 z m -9.41266,23.17183 -1.08601,-1.04284 v -9.09772 -9.09771 l 1.05833,-1.03335 c 0.58209,-0.56833 1.15359,-1.03428 1.27,-1.03544 0.16722,-0.002 0.21167,2.34487 0.21167,11.1739 0,7.93129 -0.0534,11.176 -0.18399,11.176 -0.10119,0 -0.67269,-0.46928 -1.27,-1.04284 z m 44.46466,-10.13316 c 0,-8.96255 0.0429,-11.176 0.21656,-11.176 0.1191,0 0.6906,0.4783 1.27,1.06289 l 1.05344,1.06289 v 9.07027 9.07027 l -1.08601,1.04284 c -0.59731,0.57356 -1.16881,1.04284 -1.27,1.04284 -0.13057,0 -0.18399,-3.24471 -0.18399,-11.176 z m -33.02,-21.23701 c 0,-0.13183 0.4847,-0.66523 1.07711,-1.18534 l 1.07711,-0.94565 h 9.38411 9.38412 l 1.05344,1.06289 c 0.57939,0.58459 1.05344,1.11799 1.05344,1.18533 0,0.0673 -5.1816,0.12245 -11.51467,0.12245 -9.81663,0 -11.51466,-0.0353 -11.51466,-0.23968 z"
           id="path6394"
           inkscape:connector-curvature="0" />
      </g>
    </g>
  </g>
</svg>
